<svg xmlns="http://www.w3.org/2000/svg" width="22" height="19" viewBox="0 0 22 19"><path d="M24.022,20.155l-1.7-4.212a8.687,8.687,0,0,0,.824-3.694c0-5.246-4.7-9.5-10.509-9.5S2.124,7,2.124,12.25s4.7,9.5,10.509,9.5a11.175,11.175,0,0,0,6.575-2.094l3.842,1.36C23.9,21.316,24.336,20.929,24.022,20.155ZM7.405,13.466a1.287,1.287,0,0,1-1.346-1.217,1.287,1.287,0,0,1,1.346-1.217,1.287,1.287,0,0,1,1.346,1.217A1.287,1.287,0,0,1,7.405,13.466Zm4.97,0a1.287,1.287,0,0,1-1.346-1.217,1.353,1.353,0,0,1,2.692,0A1.287,1.287,0,0,1,12.375,13.466Zm4.97,0A1.287,1.287,0,0,1,16,12.249a1.353,1.353,0,0,1,2.692,0A1.287,1.287,0,0,1,17.345,13.466Z" transform="translate(-2.124 -2.75)" fill="#fff"/></svg>