<svg xmlns="http://www.w3.org/2000/svg" width="16" height="18" viewBox="0 0 16 18"><g transform="translate(-4 -2)"><path d="M15.335,16.143a.655.655,0,0,0-.667.643v1.929H5.333V3.286h9.334V5.214a.667.667,0,0,0,1.333,0V2.643A.655.655,0,0,0,15.335,2H4.667A.655.655,0,0,0,4,2.643V19.357A.655.655,0,0,0,4.667,20H15.335A.655.655,0,0,0,16,19.357V16.786A.655.655,0,0,0,15.335,16.143Z" transform="translate(0 0)" fill="#fff"/><ellipse cx="0.667" cy="0.643" rx="0.667" ry="0.643" transform="translate(6.667 10.357)" fill="#fff"/><path d="M23.954,14.09a.621.621,0,0,0,0-.463.263.263,0,0,0-.047-.071.28.28,0,0,0-.053-.1l-2.667-3.214a.684.684,0,0,0-.933-.1.637.637,0,0,0-.249.432.627.627,0,0,0,.142.475l1.8,2.166H16.667a.643.643,0,1,0,0,1.286h5.281l-1.8,2.173a.627.627,0,0,0,.107.9.682.682,0,0,0,.933-.1l2.667-3.214a.38.38,0,0,0,.053-.1A.263.263,0,0,0,23.954,14.09Z" transform="translate(-3.999 -2.859)" fill="#fff"/></g></svg>